<svg width="25" height="25" viewBox="0 0 25 25" fill="none" xmlns="http://www.w3.org/2000/svg">
<path d="M11.7188 23.4375V17.5719C10.2823 17.4656 9.03281 16.9453 7.97031 16.0109C6.90781 15.0766 6.24219 13.9005 5.97344 12.4828C4.32031 12.288 2.91146 11.6104 1.74688 10.45C0.582292 9.28958 0 7.88958 0 6.25V5.64844C0 4.95469 0.247396 4.36094 0.742187 3.86719C1.23698 3.37344 1.83073 3.12604 2.52344 3.125H5.70937V2.52344C5.70937 1.82969 5.95625 1.23594 6.45 0.742187C6.94479 0.247396 7.53958 0 8.23438 0H16.7688C17.4625 0 18.0562 0.247396 18.55 0.742187C19.0448 1.23594 19.2922 1.82969 19.2922 2.52344V3.125H22.4781C23.1719 3.125 23.7656 3.3724 24.2594 3.86719C24.7531 4.36198 25 4.95573 25 5.64844V6.25C25 7.88854 24.4177 9.28854 23.2531 10.45C22.0885 11.6115 20.6797 12.2885 19.0266 12.4812C18.7578 13.9 18.0922 15.0766 17.0297 16.0109C15.9672 16.9453 14.7177 17.4661 13.2812 17.5734V23.4375H17.3687C17.5896 23.4375 17.775 23.5125 17.925 23.6625C18.075 23.8125 18.15 23.9984 18.15 24.2203C18.15 24.4422 18.075 24.6276 17.925 24.7766C17.775 24.9255 17.5896 25 17.3687 25H7.63281C7.41094 25 7.225 24.925 7.075 24.775C6.925 24.625 6.85052 24.4391 6.85156 24.2172C6.8526 23.9953 6.92708 23.8099 7.075 23.6609C7.22292 23.512 7.40885 23.4375 7.63281 23.4375H11.7188ZM5.70937 10.8063V4.6875H2.52344C2.24323 4.6875 2.01302 4.7776 1.83281 4.95781C1.6526 5.13802 1.5625 5.36875 1.5625 5.65V6.25C1.5625 7.41979 1.95938 8.43698 2.75313 9.30156C3.54583 10.1661 4.53125 10.6677 5.70937 10.8063ZM12.5062 16.0453C13.9437 16.0453 15.1635 15.5427 16.1656 14.5375C17.1677 13.5333 17.6687 12.313 17.6687 10.8766V2.525C17.6687 2.24375 17.5781 2.01302 17.3969 1.83281C17.2177 1.6526 16.9875 1.5625 16.7063 1.5625H8.29375C8.0125 1.5625 7.78229 1.6526 7.60313 1.83281C7.42188 2.01302 7.33125 2.24375 7.33125 2.525V10.8781C7.33125 12.3135 7.83437 13.5339 8.84062 14.5391C9.84792 15.5432 11.0703 16.0453 12.5078 16.0453M19.2906 10.8063C20.4688 10.6677 21.4547 10.1661 22.2484 9.30156C23.0411 8.43698 23.4375 7.41979 23.4375 6.25V5.64844C23.4375 5.36823 23.3474 5.13802 23.1672 4.95781C22.987 4.7776 22.7568 4.6875 22.4766 4.6875H19.2906V10.8063Z" fill="currentColor"/>
</svg>
