<svg width="25" height="25" viewBox="0 0 25 25" fill="none" xmlns="http://www.w3.org/2000/svg">
<path d="M24.5785 3.07606C24.4727 2.22947 24.0606 1.45025 23.4193 0.884102C22.7781 0.317958 21.9516 0.00366601 21.0944 0H3.90559C3.05054 0.00322781 2.22579 0.315556 1.58485 0.87885C0.943921 1.44214 0.530473 2.21803 0.421468 3.06208L9.89034e-07 6.51566C-0.000437222 7.19343 0.144748 7.86346 0.42582 8.4808C0.706892 9.09815 1.11735 9.64855 1.62967 10.0951V21.5045C1.62967 22.4315 1.99971 23.3206 2.65838 23.9762C3.31705 24.6317 4.2104 25 5.14189 25H19.8511C20.7826 25 21.6759 24.6317 22.3346 23.9762C22.9933 23.3206 23.3633 22.4315 23.3633 21.5045V10.0951C23.8769 9.64919 24.2887 9.09908 24.571 8.4817C24.8533 7.86432 24.9996 7.19396 25 6.51566L24.5785 3.07606ZM15.3203 23.6018H9.70076V17.8971C9.70076 17.3408 9.92278 16.8074 10.318 16.4141C10.7132 16.0207 11.2492 15.7998 11.8081 15.7998H13.213C13.7719 15.7998 14.3079 16.0207 14.7031 16.4141C15.0983 16.8074 15.3203 17.3408 15.3203 17.8971V23.6018ZM21.9654 21.5045C21.9654 22.0607 21.7434 22.5942 21.3482 22.9875C20.953 23.3808 20.417 23.6018 19.8581 23.6018H16.7252V17.8971C16.7252 16.97 16.3552 16.0809 15.6965 15.4254C15.0378 14.7698 14.1445 14.4016 13.213 14.4016H11.8081C10.8766 14.4016 9.98325 14.7698 9.32458 15.4254C8.66591 16.0809 8.29587 16.97 8.29587 17.8971V23.6018H5.14189C4.58299 23.6018 4.04699 23.3808 3.65179 22.9875C3.25658 22.5942 3.03456 22.0607 3.03456 21.5045V10.92C3.58708 11.146 4.1793 11.26 4.77662 11.2556C5.46623 11.2586 6.14812 11.1112 6.77433 10.8237C7.40055 10.5363 7.95587 10.1157 8.40124 9.59172C8.43256 9.56044 8.46978 9.53562 8.51077 9.51868C8.55175 9.50174 8.59569 9.49302 8.64007 9.49302C8.68444 9.49302 8.72838 9.50174 8.76937 9.51868C8.81035 9.53562 8.84758 9.56044 8.8789 9.59172C9.32427 10.1157 9.87959 10.5363 10.5058 10.8237C11.132 11.1112 11.8139 11.2586 12.5035 11.2556C13.1961 11.2579 13.8808 11.1102 14.5103 10.8229C15.1398 10.5356 15.699 10.1155 16.1492 9.59172C16.178 9.561 16.2128 9.53647 16.2514 9.51964C16.2901 9.5028 16.3318 9.49403 16.374 9.49385C16.4183 9.49374 16.4622 9.50233 16.5032 9.51912C16.5442 9.53592 16.5814 9.56059 16.6128 9.59172C17.0582 10.1157 17.6135 10.5363 18.2397 10.8237C18.8659 11.1112 19.5478 11.2586 20.2374 11.2556C20.83 11.2582 21.4173 11.1441 21.9654 10.92V21.5045ZM20.2374 9.85738C19.7523 9.85926 19.2725 9.7565 18.8311 9.55616C18.3897 9.35582 17.9972 9.06266 17.6805 8.69687C17.5224 8.5087 17.3246 8.35735 17.1013 8.25347C16.878 8.14959 16.6345 8.09572 16.388 8.09564H16.374C16.1286 8.094 15.8858 8.1457 15.6625 8.24713C15.4393 8.34856 15.241 8.49728 15.0815 8.68289C14.7556 9.0366 14.3594 9.31903 13.918 9.51224C13.4767 9.70545 12.9997 9.80522 12.5176 9.80522C12.0354 9.80522 11.5585 9.70545 11.1171 9.51224C10.6757 9.31903 10.2795 9.0366 9.95364 8.68289C9.79016 8.4984 9.58911 8.35065 9.36384 8.24944C9.13857 8.14823 8.89425 8.09589 8.64709 8.09589C8.39994 8.09589 8.15561 8.14823 7.93034 8.24944C7.70507 8.35065 7.50402 8.4984 7.34055 8.68289C6.89714 9.19783 6.30766 9.56732 5.64946 9.74284C4.99127 9.91837 4.29514 9.89172 3.65243 9.66641C3.00973 9.4411 2.4505 9.02764 2.04814 8.48032C1.64578 7.933 1.41911 7.27739 1.39787 6.59955L1.81933 3.24385C1.88689 2.73709 2.13571 2.27154 2.52018 1.93255C2.90465 1.59357 3.399 1.40386 3.91262 1.39821H21.0944C21.6097 1.39792 22.1073 1.58556 22.493 1.92565C22.8787 2.26574 23.1259 2.73469 23.1877 3.24385L23.5951 6.54362C23.5877 7.42626 23.2297 8.27013 22.5993 8.89099C21.9689 9.51184 21.1173 9.85926 20.2304 9.85738H20.2374Z" fill="currentColor"/>
</svg>
